<?xml version="1.0" ?><svg height="64px" id="Слой_1" style="enable-background:new 0 0 64 64;" version="1.1" viewBox="0 0 64 64" width="64px" xml:space="preserve" xmlns="http://www.w3.org/2000/svg" xmlns:xlink="http://www.w3.org/1999/xlink"><g id="row_3"><g id="coffin"><path d="M61.6,18.4L46,2.7c-0.8-0.1-1.4-0.3-2.2-0.4l-19.7,8.9c-0.3,0.3-0.6,0.5-0.9,0.8L2.9,45.4    c0.1,0.9,0.2,1.5,0.3,2.4l13.4,13.4c0.9,0.1,1.5,0.2,2.4,0.3l33.3-20.3c0.3-0.3,0.5-0.6,0.8-0.9L62,20.6    C61.9,19.8,61.7,19.2,61.6,18.4z" style="fill:#6D4C41;"/><polygon points="4.7,46.3 25,13.1 44.7,4.1 60.3,19.7 51.3,39.4 18.1,59.7   " style="fill:#1A237E;"/><path d="M54.6,38.7c-0.2,0-0.3,0-0.5-0.1l-3.6-1.9c-0.5-0.3-0.7-0.9-0.4-1.4c0.3-0.5,0.9-0.7,1.4-0.4    l3.6,1.9c0.5,0.3,0.7,0.9,0.4,1.4C55.3,38.5,54.9,38.7,54.6,38.7z" style="fill:#2E7D32;"/><path d="M56.2,35.7c-0.2,0-0.3,0-0.5-0.1l-4.3-2.3c-0.5-0.3-0.7-0.9-0.4-1.3c0.3-0.5,0.9-0.7,1.3-0.4    l4.3,2.3c0.5,0.3,0.7,0.9,0.4,1.3C56.9,35.5,56.5,35.7,56.2,35.7z" style="fill:#2E7D32;"/><path d="M56.9,32.4c-0.1,0-0.2,0-0.3,0l-3.7-1.1c-0.5-0.2-0.8-0.7-0.7-1.2c0.2-0.5,0.7-0.8,1.2-0.7l3.7,1.1    c0.5,0.2,0.8,0.7,0.7,1.2C57.7,32.1,57.3,32.4,56.9,32.4z" style="fill:#2E7D32;"/><path d="M58.2,15.9l-17-14.2c-0.8-0.1-1.4-0.1-2.2-0.2L20.2,12.1c-0.3,0.3-0.5,0.5-0.8,0.8L2,47.9    c0.2,0.9,0.3,1.5,0.5,2.4L17,62.5c0.9,0,1.5,0,2.4,0.1l31.4-23.2c0.2-0.3,0.4-0.6,0.7-0.9L58.7,18C58.5,17.3,58.4,16.7,58.2,15.9z    " style="fill:#8D6E63;"/><rect height="42" style="fill:#FFF9C4;" transform="matrix(0.7659 0.6429 -0.6429 0.7659 27.8558 -11.5538)" width="5" x="27.3" y="11.5"/><rect height="5" style="fill:#FFF9C4;" transform="matrix(0.7661 0.6428 -0.6428 0.7661 24.629 -17.1305)" width="23.5" x="24.1" y="22.8"/></g></g></svg>