<svg height="512" viewBox="0 0 58 54" width="512" xmlns="http://www.w3.org/2000/svg"><g id="Page-1" fill="none" fill-rule="evenodd"><g id="010---Identifying-Breakouts" fill-rule="nonzero" transform="translate(0 -1)"><path id="Rectangle-path" d="m15 42h12v11h-12z" fill="#3f5c6c"/><path id="Shape" d="m42 40v2c0 1.6568542-1.3431458 3-3 3h-36c-1.65685425 0-3-1.3431458-3-3v-2z" fill="#547580"/><path id="Shape" d="m42 31.14v8.86h-42v-24c0-1.6568542 1.34314575-3 3-3h19.54c-1.2450754 4.5153349-.3109732 9.3530565 2.5256331 13.0802708 2.8366063 3.7272144 7.2505167 5.9166187 11.9343669 5.9197292 1.7036777.0024862 3.3950597-.2884315 5-.86z" fill="#b0d3f0"/><path id="Shape" d="m13 50h16c1.6568542 0 3 1.3431458 3 3v1c0 .5522847-.4477153 1-1 1h-20c-.5522847 0-1-.4477153-1-1v-1c0-1.6568542 1.3431458-3 3-3z" fill="#547580"/><path id="Shape" d="m52 17c-.000905 6.3559611-4.0075423 12.0213463-10 14.14-1.6049403.5715685-3.2963223.8624862-5 .86-8.2842712 0-15-6.7157288-15-15 0-8.28427125 6.7157288-15 15-15s15 6.71572875 15 15z" fill="#2fa8cc"/><path id="Shape" d="m50.63 10.73c-5.6663056-1.83535354-11.881737-.1457543-15.8390466 4.3056772s-4.9073206 10.821974-2.4209534 16.2343228c-6.5270654-2.120743-10.7823565-8.4007861-10.3325507-15.2489835.4498058-6.84819743 5.4899708-12.51769302 12.2383544-13.76647314 6.7483836-1.24878013 13.4835904 2.24169731 16.3541963 8.47545664z" fill="#67b9cc"/><g fill="#e64c3c"><path id="Shape" d="m49.51 25.27 7.61 7.61c1.1698135 1.1712702 1.1698135 3.0687298 0 4.24-.5617198.5632738-1.3245087.8798486-2.12.8798486s-1.5582802-.3165748-2.12-.8798486l-7.61-7.61z"/><path id="Shape" d="m4 37c-.4043959-.0000863-.76893405-.2437275-.92367798-.6173454-.15474393-.373618-.06922994-.8036603.21667798-1.0896546l4.5-4.5c.39049985-.3903819 1.02350015-.3903819 1.414 0l2.793 2.793 4.793-4.793c.3904999-.3903819 1.0235001-.3903819 1.414 0l2.293 2.293 4.7-4.7c.3904653-.3912937 1.0242063-.3919653 1.4155-.0015s.3919653 1.0242063.0015 1.4155l-5.41 5.41c-.3904999.3903819-1.0235001.3903819-1.414 0l-2.293-2.296-4.793 4.793c-.3904999.3903819-1.0235001.3903819-1.414 0l-2.793-2.793-3.793 3.793c-.18749273.1875494-.44180519.2929434-.707.293z"/><path id="Shape" d="m41.5 24.5c-.2651948-.0000566-.5195073-.1054506-.707-.293l-8.793-8.793-8.123 8.123c-.3923789.3789722-1.0160848.3735524-1.4018186-.0121814s-.3911536-1.0094397-.0121814-1.4018186l8.83-8.83c.3904999-.3903819 1.0235001-.3903819 1.414 0l8.793 8.793 9.363-9.363c.2510745-.2599566.6228779-.3642126.9725073-.2726972.3496295.0915155.6226744.3645604.7141899.7141899.0915154.3496294-.0127406.7214328-.2726972.9725073l-10.07 10.07c-.1874927.1875494-.4418052.2929434-.707.293z"/></g><path id="Shape" d="m4 21c-.4043959-.0000863-.76893405-.2437275-.92367798-.6173454-.15474393-.373618-.06922994-.8036603.21667798-1.0896546l3-3c.39237889-.3789722 1.01608478-.3735524 1.40181858.0121814.38573379.3857338.39115363 1.0094397.01218142 1.4018186l-3 3c-.18749273.1875494-.44180519.2929434-.707.293z" fill="#fff"/><path id="Shape" d="m4 26c-.4043959-.0000863-.76893405-.2437275-.92367798-.6173454-.15474393-.373618-.06922994-.8036603.21667798-1.0896546l8-8c.3923789-.3789722 1.0160848-.3735524 1.4018186.0121814s.3911536 1.0094397.0121814 1.4018186l-8 8c-.18749273.1875494-.44180519.2929434-.707.293z" fill="#fff"/><path id="Shape" d="m37 33c-8.3147623.0042646-15.2485217-6.3579065-15.9578527-14.6423582-.709331-8.2844518 5.0419497-15.73274086 13.2364112-17.14202841s16.1036242 3.6896717 18.2027161 11.73511171c2.0990919 8.0454399-2.310814 16.3585002-10.1492746 19.1322749-1.7115231.6094525-3.515207.919651-5.332.917zm0-30c-7.7319865 0-14 6.2680135-14 14s6.2680135 14 14 14c1.5890667.0030841 3.1667937-.2675381 4.664-.8 6.4291035-2.2719874 10.2862492-8.8453958 9.1338535-15.5660567-1.1523956-6.72066083-6.9791074-11.63357243-13.7978535-11.6339433z" fill="#95a5a5"/></g></g></svg>